<?xml version="1.0" encoding="utf-8"?>
<!-- Generator: Adobe Illustrator 25.0.0, SVG Export Plug-In . SVG Version: 6.00 Build 0)  -->
<svg version="1.1" id="Слой_1" xmlns="http://www.w3.org/2000/svg" xmlns:xlink="http://www.w3.org/1999/xlink" x="0px" y="0px"
	 viewBox="0 0 101.7 35" style="enable-background:new 0 0 101.7 35;" xml:space="preserve">
<style type="text/css">
	.st0{fill:#FFFFFF;}
</style>
<g>
	<g>
		<path class="st0" d="M43.2,30h-1.8v-9.6h1.8L43.2,30L43.2,30z M45.1,24.8l3.2,5.3h-2l-3-5.1l2.9-4.5H48L45.1,24.8z"/>
		<path class="st0" d="M53.3,27.8h-2.8L50,30h-1.8l2.7-9.6H53l2.7,9.6h-1.9L53.3,27.8z M53,26.4l-1.1-4.6l-1.1,4.6H53z"/>
		<path class="st0" d="M61.9,21.8l-4,6.7H62L61.8,30h-5.9v-1.4l4-6.8h-3.7v-1.4h5.6L61.9,21.8L61.9,21.8z"/>
		<path class="st0" d="M70,25.2c0,3.9-2.1,4.9-4.2,4.9h-2.4v-9.6h2.2C67.8,20.4,70,21.2,70,25.2z M65.1,21.8v6.9h0.8
			c1.3,0,2.2-0.6,2.2-3.5c0-2.9-1.1-3.4-2.3-3.4H65.1L65.1,21.8z"/>
		<path class="st0" d="M74.3,26.2h-1V30h-1.8v-9.6H74c2.4,0,3.6,1,3.6,2.8c0,1.2-0.6,2.1-1.7,2.6l2.2,4.2h-2L74.3,26.2z M74.1,24.9
			c1.1,0,1.7-0.5,1.7-1.6c0-1-0.5-1.5-1.8-1.5h-0.7v3.1H74.1z"/>
		<path class="st0" d="M84.2,21.8H81v2.7h2.7v1.3H81v2.9h3.4V30h-5.2v-9.6h5.1L84.2,21.8z"/>
		<path class="st0" d="M90,27.8h-2.8L86.7,30h-1.8l2.7-9.6h2.2l2.7,9.6h-1.9L90,27.8z M89.7,26.4l-1.1-4.6l-1.1,4.6H89.7z"/>
		<path class="st0" d="M101.7,30H100l-0.2-4c-0.1-1.4-0.1-2.9-0.1-3.9L98.2,29h-1.7l-1.6-6.9c0,1.3,0,2.6,0,4l-0.2,4h-1.7l0.7-9.6
			h2.3l1.4,6.7l1.4-6.7h2.3L101.7,30z"/>
	</g>
	<g>
		<g id="Layer0_0_1_STROKES_3_">
			<path class="st0" d="M13.3,35c-0.5,0-1-0.2-1.3-0.5c-0.3-0.4-0.5-0.8-0.4-1.4c0.1-0.5,0.3-1,0.6-1.7c0,0,0,0-0.1,0
				c-0.2,0-0.5,0-0.7,0c-3,0-5.6-0.5-7.7-1.5C1.3,28.7,0,27.2,0,25.4s1.1-3.4,3.5-4.6c2.2-1.2,5-1.9,8.2-2c-0.1-1.6,0.1-3.4,0.3-5.2
				c0-0.1,0-0.2,0-0.3c0.5-2.9,1.3-5.4,2.5-7.6C15,5,15.5,4.3,16,3.6c1.2-1.5,2.4-2.6,3.7-3.1c0.9-0.4,1.9-0.5,2.8-0.4
				c0.4,0.1,0.8,0.2,1.2,0.4c0.8,0.4,1.6,1,2.2,1.8c0.6,0.8,1.1,1.9,1.6,3.2c0,0.2,0.1,0.3,0.2,0.5c0.7,2.3,1,4.8,0.8,7.6
				c-0.1,0.9-0.2,1.8-0.3,2.7c-0.3,1.9-0.8,3.7-1.4,5.3c2.3-0.6,4.4-1,6.2-1.1c1.1,0,2,0,2.7,0.2c0.8,0.2,1.2,0.6,1.4,1.1
				s0,1.1-0.5,1.7c-0.4,0.5-1.1,1.1-2.1,1.7c-1.9,1.2-4.2,2.2-7.1,3.1c-2.1,0.6-4,1.1-5.8,1.3c-0.5,0.6-1.1,1.2-1.7,1.7
				c-1.6,1.4-3.1,2.5-4.5,3.1C14.6,34.8,14,35,13.4,35C13.4,35,13.3,35,13.3,35z M13.3,31.3c-0.1,0.1-0.1,0.2-0.2,0.3
				c-0.6,1.1-0.8,1.9-0.5,2.3c0.3,0.3,1.1,0.3,2.3-0.3c1.4-0.6,2.8-1.6,4.3-2.9c0.3-0.3,0.7-0.6,1-1c-0.2,0-0.3,0-0.5,0
				C18,30.6,15.8,31.1,13.3,31.3z M11.8,19.7c-3.1,0.1-5.7,0.7-7.9,1.9c-1.1,0.6-1.9,1.2-2.4,1.9c-0.5,0.6-0.7,1.3-0.7,2
				c0,0.7,0.3,1.3,0.8,1.9c0.5,0.6,1.4,1.2,2.5,1.7c2.2,1,4.9,1.5,8,1.4c0.2,0,0.4,0,0.6,0c0.5-0.8,1.2-1.6,1.9-2.4
				c-0.8-0.9-1.5-2.1-2-3.7C12.2,22.9,11.9,21.3,11.8,19.7z M15.4,28.6c-0.6,0.6-1.1,1.2-1.5,1.8c1.3-0.1,2.6-0.4,3.7-0.7
				c-0.4-0.1-0.8-0.2-1.1-0.3c0,0,0,0,0,0C16.1,29.2,15.7,28.9,15.4,28.6z M18.3,28.9c1.3,0.1,2.5-0.5,3.7-1.6
				c0.2-0.2,0.5-0.5,0.6-0.7c0.3-0.6,0.5-1,0.5-1.4c0-0.1,0-0.2,0-0.3l0,0l0,0c0-0.2-0.1-0.3-0.2-0.4c-0.3-0.3-1.1-0.3-2.3,0.3
				c-1.2,0.5-2.4,1.3-3.7,2.4c-0.3,0.3-0.6,0.7-0.5,1.1c0,0.2,0.2,0.3,0.3,0.4c0.3,0.1,0.6,0.2,0.9,0.3h0
				C18,28.9,18.2,28.9,18.3,28.9z M23.3,27.3c-0.2,0.4-0.5,0.9-0.9,1.3c1.4-0.2,3-0.6,4.7-1.1c2.8-0.9,5.1-1.9,6.9-3
				c1.6-1,2.4-1.9,2.2-2.4c-0.2-0.5-1.3-0.8-3.2-0.7c-1.9,0.1-4.2,0.5-6.6,1.2c-0.6,1.3-1.3,2.6-2.1,3.7
				C23.9,26.6,23.6,27,23.3,27.3z M12.7,19.6c0.1,1.6,0.4,3.1,0.9,4.4c0.5,1.4,1.1,2.6,1.8,3.4c0.2-0.2,0.3-0.3,0.5-0.5
				c0.2-0.2,0.4-0.3,0.6-0.5c0.4-0.5,1-0.9,1.8-1.4c1.2-0.8,2.6-1.5,4.2-2.1c-0.5-0.7-1.4-1.3-2.5-1.8
				C17.9,20.1,15.4,19.6,12.7,19.6z M24.1,24.8L24.1,24.8c0.4-0.6,0.8-1.3,1.1-1.9c-0.5,0.2-1,0.3-1.4,0.5
				C24,23.8,24.1,24.3,24.1,24.8C24.1,24.8,24.1,24.8,24.1,24.8L24.1,24.8L24.1,24.8z M12.6,18.8c2.9,0,5.5,0.5,7.7,1.5
				c1.4,0.6,2.4,1.4,3,2.3c0.6-0.2,1.3-0.5,2-0.7c0.1,0,0.2-0.1,0.3-0.1c0.7-1.7,1.3-3.7,1.6-5.8c0.2-0.9,0.2-1.8,0.3-2.6
				c0.2-2.7-0.1-5.1-0.8-7.3c0-0.2-0.1-0.3-0.2-0.4c-0.8-2.3-1.9-3.9-3.3-4.5c-0.3-0.2-0.7-0.2-1-0.3c-0.8-0.1-1.6,0-2.3,0.3
				c-1.1,0.5-2.2,1.4-3.3,2.9c-0.5,0.6-0.9,1.3-1.3,2.1c-1.1,2.1-1.9,4.5-2.4,7.3l0,0c0,0.1,0,0.2,0,0.2
				C12.7,15.5,12.5,17.2,12.6,18.8z"/>
		</g>
	</g>
</g>
</svg>
