<?xml version="1.0" encoding="utf-8"?>
<!-- Generator: Adobe Illustrator 25.0.0, SVG Export Plug-In . SVG Version: 6.00 Build 0)  -->
<svg version="1.1" id="Слой_1" xmlns="http://www.w3.org/2000/svg" xmlns:xlink="http://www.w3.org/1999/xlink" x="0px" y="0px"
	 viewBox="0 0 470.1 161.8" style="enable-background:new 0 0 470.1 161.8;" xml:space="preserve">
<style type="text/css">
	.st0{fill:#FFFFFF;}
</style>
<g>
	<g>
		<path class="st0" d="M199.5,138.9h-8.4V94.4h8.3L199.5,138.9L199.5,138.9z M208.5,114.6l14.6,24.3h-9.4l-13.9-23.7l13.6-20.7h8.7
			L208.5,114.6z"/>
		<path class="st0" d="M246.3,128.5h-12.9l-2.4,10.3h-8.5l12.3-44.4h10.2l12.3,44.4h-8.6L246.3,128.5z M244.9,122.2l-5-21.4l-5,21.4
			H244.9z"/>
		<path class="st0" d="M286.3,100.9l-18.6,31.2h18.8l-0.9,6.8h-27.2v-6.4l18.7-31.4h-16.9v-6.6h26L286.3,100.9L286.3,100.9z"/>
		<path class="st0" d="M323.5,116.5c0,18.1-9.8,22.5-19.6,22.5h-11.3V94.5h10.3C313.5,94.4,323.5,97.8,323.5,116.5z M300.9,100.7v32
			h3.6c5.8,0,10.4-2.9,10.4-16.2c0-13.6-4.9-15.8-10.6-15.8L300.9,100.7L300.9,100.7z"/>
		<path class="st0" d="M343.4,121h-4.6v17.9h-8.3V94.4h11.7c11.3,0,16.8,4.5,16.8,13c0,5.6-2.6,9.8-8,12l10.3,19.4h-9.2L343.4,121z
			 M342.6,115c5.3,0,7.7-2.3,7.7-7.5c0-4.8-2.4-6.9-8.2-6.9h-3.3V115H342.6z"/>
		<path class="st0" d="M389,100.6h-14.5v12.6h12.7v6.1h-12.7v13.3H390v6.2h-23.9V94.4h23.7L389,100.6z"/>
		<path class="st0" d="M415.8,128.5H403l-2.4,10.3h-8.4l12.3-44.4h10.2l12.3,44.4h-8.6L415.8,128.5z M414.4,122.2l-5-21.4l-5,21.4
			H414.4z"/>
		<path class="st0" d="M470.1,138.9h-8l-1-18.7c-0.3-6.6-0.6-13.4-0.4-18.1l-7,32h-7.8l-7.4-32c0.2,5.9,0.1,12-0.2,18.4l-0.9,18.5
			h-7.9l3.1-44.4h10.7l6.7,31.2l6.3-31.2h10.7L470.1,138.9z"/>
	</g>
	<g>
		<g id="Layer0_0_1_STROKES_3_">
			<path class="st0" d="M61.5,161.8c-2.5,0-4.4-0.8-5.8-2.3c-1.5-1.7-2.1-3.9-1.7-6.7c0.3-2.2,1.2-4.8,2.8-7.8c-0.1,0-0.2,0-0.3,0
				c-1.1,0-2.2,0.1-3.3,0.1c-13.7,0-25.7-2.4-35.7-7.1C6.1,132.7,0.2,125.8,0,117.5S5.3,102,16.2,96.1c10.4-5.6,23.2-8.7,38-9.2
				c-0.3-7.5,0.3-15.6,1.6-24c0.1-0.4,0.1-0.8,0.2-1.2c2.2-13.3,6.1-25,11.4-35c1.9-3.6,4.1-7,6.5-10.2C79.4,9.4,85.1,4.4,90.9,2
				c4.2-1.8,8.6-2.4,12.9-1.7c2,0.3,3.9,0.9,5.7,1.7c3.9,1.7,7.3,4.6,10.2,8.5c2.9,3.8,5.3,8.7,7.3,14.6c0.2,0.7,0.5,1.4,0.7,2.1
				c3.3,10.5,4.5,22.3,3.6,35.1c-0.3,4-0.7,8.2-1.4,12.4c-1.4,8.9-3.6,17.2-6.4,24.7c10.6-2.9,20.2-4.6,28.6-4.9
				c5.3-0.2,9.3,0.1,12.3,1c3.5,1,5.6,2.7,6.4,5.2c0.8,2.5,0,5.1-2.3,7.9c-2,2.4-5.1,5-9.5,7.8c-8.6,5.5-19.5,10.3-32.7,14.5
				c-9.6,3-18.6,5-26.6,6.1c-2.3,2.7-5,5.4-7.9,8c-7.2,6.6-14.2,11.4-20.9,14.3c-3.5,1.5-6.4,2.4-8.8,2.5
				C61.9,161.8,61.7,161.8,61.5,161.8z M61.5,144.8c-0.3,0.4-0.5,0.9-0.7,1.3c-2.9,5.2-3.6,9-2.1,10.6c1.5,1.6,5.3,1.2,10.8-1.2
				c6.3-2.8,12.9-7.3,19.8-13.6c1.6-1.5,3.2-3,4.6-4.5c-0.7,0.1-1.5,0.1-2.2,0.1C83,141.6,72.8,144,61.5,144.8z M54.5,90.9
				c-14.2,0.5-26.4,3.4-36.3,8.7c-4.9,2.7-8.6,5.5-10.9,8.6c-2.3,2.9-3.3,5.9-3.2,9.2c0.1,3.3,1.3,6.2,3.7,9
				c2.5,2.9,6.3,5.6,11.4,7.9c10.3,4.8,22.8,7.1,37.2,6.7c0.9,0,1.9-0.1,2.8-0.1c2.4-3.7,5.4-7.5,9-11.3c-3.8-4.1-7-9.9-9.4-17.1
				C56.5,105.8,55.1,98.5,54.5,90.9z M71.1,132.4c-2.6,2.7-4.9,5.5-6.9,8.2c6.2-0.6,12-1.7,17.3-3.4c-1.7-0.3-3.5-0.8-5.1-1.6
				c0,0,0,0-0.1,0C74.5,134.8,72.7,133.7,71.1,132.4z M84.7,133.5c5.8,0.3,11.6-2.2,17.2-7.4c1.1-1.1,2.1-2.3,2.9-3.4
				c1.3-2.6,2.1-4.7,2.3-6.4c0.1-0.5,0.1-1,0.1-1.5v0l0,0c-0.1-0.8-0.3-1.4-0.7-1.9c-1.5-1.6-5.3-1.2-10.8,1.2
				c-5.4,2.4-11.2,6.2-17,11.2c-1.3,1.4-2.8,3.4-2.3,5c0.2,0.7,0.7,1.2,1.6,1.7c1.4,0.6,2.9,1.1,4.3,1.3l0.2,0
				C83.2,133.4,84,133.5,84.7,133.5z M107.5,126.3c-1.1,2-2.5,4-4,6c6.7-1.1,13.9-2.9,21.7-5.3c12.8-4,23.5-8.7,31.7-14
				c7.2-4.6,10.9-8.7,10.1-11.2c-0.8-2.5-6.1-3.7-14.7-3.4c-8.9,0.3-19.3,2.2-30.7,5.6c-2.7,6.2-6,11.9-9.8,16.9
				C110.4,122.9,108.9,124.7,107.5,126.3z M58.5,90.8c0.5,7.2,1.9,14.1,4.1,20.4c2.3,6.6,5.1,11.9,8.5,15.6c0.7-0.7,1.5-1.4,2.3-2.1
				c0.9-0.8,1.8-1.6,2.7-2.3c2-2.1,4.8-4.3,8.5-6.6c5.5-3.5,12-6.8,19.5-9.8c-2.5-3.1-6.4-5.8-11.7-8.3
				C82.8,93.1,71.4,90.8,58.5,90.8z M111.3,114.7C111.3,114.7,111.3,114.7,111.3,114.7c1.9-2.8,3.6-5.8,5.2-9
				c-2.3,0.7-4.5,1.5-6.6,2.3c0.9,2.1,1.4,4.2,1.5,6.5C111.3,114.5,111.3,114.5,111.3,114.7L111.3,114.7L111.3,114.7z M58.3,86.8
				c13.6,0,25.6,2.4,35.6,7.1c6.4,3,11,6.5,13.9,10.5c3-1.1,6.1-2.2,9.3-3.2c0.5-0.2,1.1-0.3,1.6-0.5c3.3-7.9,5.8-16.9,7.3-26.7
				c0.7-4.1,1.1-8.2,1.4-12.1c0.8-12.3-0.3-23.6-3.5-33.6c-0.2-0.7-0.4-1.3-0.7-2c-3.7-10.8-8.8-17.8-15.4-20.7
				c-1.5-0.7-3.1-1.1-4.7-1.4c-3.6-0.6-7.2-0.1-10.7,1.4C87.3,7.8,82.1,12.3,77.1,19c-2.2,3-4.3,6.2-6.2,9.7
				c-5.2,9.5-8.9,20.9-11,33.7v0c-0.1,0.3-0.1,0.7-0.2,1.1C58.6,71.7,58,79.5,58.3,86.8z"/>
		</g>
	</g>
</g>
</svg>
